<svg width="24" height="24" viewBox="0 0 24 24" fill="none" xmlns="http://www.w3.org/2000/svg">
<g id="Frame">
<path id="Vector" d="M3.875 23V23.125H4H6H6.125V23C6.125 19.7553 8.75533 17.125 12 17.125C15.2447 17.125 17.875 19.7553 17.875 23V23.125H18H20H20.125V23C20.125 18.5127 16.4873 14.875 12 14.875C7.51268 14.875 3.875 18.5127 3.875 23ZM5.875 8C5.875 11.384 8.61596 14.125 12 14.125C15.384 14.125 18.125 11.384 18.125 8C18.125 4.61596 15.384 1.875 12 1.875C8.61596 1.875 5.875 4.61596 5.875 8ZM15.875 8C15.875 10.141 14.141 11.875 12 11.875C9.85904 11.875 8.125 10.141 8.125 8C8.125 5.85904 9.85904 4.125 12 4.125C14.141 4.125 15.875 5.85904 15.875 8Z" fill="#CCCCCC" stroke="#CCCCCC" stroke-width="0.25"/>
</g>
</svg>
