<svg width="22" height="22" viewBox="0 0 22 22" fill="none" xmlns="http://www.w3.org/2000/svg">
<path id="Vector" d="M1.11631 16.4991C0.622996 15.6756 0.252723 14.8163 0 13.9408C1.10985 13.3951 1.86985 12.283 1.86985 11C1.86985 9.71793 1.11099 8.60657 0.00251067 8.06041C0.512339 6.28872 1.4805 4.63873 2.85707 3.29007C3.90242 3.94353 5.28182 4.02181 6.43493 3.38024C7.58803 2.73868 8.20737 1.54834 8.14281 0.349195C10.0431 -0.125309 12.01 -0.108328 13.857 0.352033C13.7936 1.55022 14.4128 2.73918 15.5651 3.38024C16.7182 4.02179 18.0975 3.94353 19.1428 3.29014C19.8033 3.9388 20.3904 4.67749 20.8837 5.50092C21.377 6.32434 21.7473 7.18368 22 8.05917C20.8901 8.60489 20.1301 9.71694 20.1301 11C20.1301 12.2822 20.889 13.3934 21.9975 13.9396C21.4877 15.7113 20.5195 17.3612 19.1429 18.7099C18.0975 18.0565 16.7182 17.9782 15.5651 18.6197C14.4119 19.2613 13.7927 20.4517 13.8572 21.6508C11.9569 22.1253 9.99007 22.1083 8.14296 21.648C8.20639 20.4497 7.58712 19.2608 6.43493 18.6197C5.28186 17.9782 3.90253 18.0564 2.85718 18.7098C2.19676 18.0611 1.60964 17.3225 1.11631 16.4991ZM7.5762 16.7148C8.82175 17.4078 9.71628 18.5035 10.1447 19.7608C10.7134 19.8129 11.2859 19.8137 11.8547 19.7626C12.2829 18.5046 13.1776 17.4082 14.4238 16.7148C15.6699 16.0214 17.1027 15.823 18.4473 16.0946C18.7776 15.6454 19.0632 15.1672 19.3007 14.6666C18.385 13.6803 17.8476 12.386 17.8476 11C17.8476 9.614 18.385 8.31974 19.3007 7.33353C19.1819 7.08497 19.0506 6.84051 18.9069 6.60074C18.7632 6.36095 18.6092 6.12921 18.4452 5.90588C17.1012 6.17681 15.6694 5.97816 14.4238 5.28518C13.1782 4.59219 12.2838 3.49647 11.8553 2.23924C11.2867 2.1871 10.7141 2.18635 10.1454 2.23745C9.71708 3.49541 8.82232 4.59185 7.5762 5.28518C6.33002 5.97853 4.89733 6.17701 3.55272 5.90545C3.2224 6.3546 2.93683 6.83275 2.69937 7.33339C3.61495 8.31964 4.15239 9.614 4.15239 11C4.15239 12.386 3.61497 13.6802 2.69937 14.6664C2.81818 14.915 2.9494 15.1595 3.09306 15.3993C3.23671 15.639 3.39079 15.8707 3.55482 16.0941C4.89883 15.8232 6.33068 16.0219 7.5762 16.7148ZM11 14.2994C9.10913 14.2994 7.5762 12.8223 7.5762 11C7.5762 9.17781 9.10913 7.70055 11 7.70055C12.891 7.70055 14.4238 9.17781 14.4238 11C14.4238 12.8223 12.891 14.2994 11 14.2994ZM11 12.0998C11.6303 12.0998 12.1413 11.6074 12.1413 11C12.1413 10.3926 11.6303 9.90017 11 9.90017C10.3697 9.90017 9.85871 10.3926 9.85871 11C9.85871 11.6074 10.3697 12.0998 11 12.0998Z" fill="#CCCCCC"/>
</svg>
