<svg width="18" height="18" viewBox="0 0 18 18" fill="none" xmlns="http://www.w3.org/2000/svg">
<path id="Vector" d="M11 18C10.4477 18 10 17.5523 10 17V9C10 8.4477 10.4477 8 11 8H17C17.5523 8 18 8.4477 18 9V17C18 17.5523 17.5523 18 17 18H11ZM1 10C0.44772 10 0 9.5523 0 9V1C0 0.44772 0.44772 0 1 0H7C7.5523 0 8 0.44772 8 1V9C8 9.5523 7.5523 10 7 10H1ZM6 8V2H2V8H6ZM1 18C0.44772 18 0 17.5523 0 17V13C0 12.4477 0.44772 12 1 12H7C7.5523 12 8 12.4477 8 13V17C8 17.5523 7.5523 18 7 18H1ZM2 16H6V14H2V16ZM12 16H16V10H12V16ZM10 1C10 0.44772 10.4477 0 11 0H17C17.5523 0 18 0.44772 18 1V5C18 5.55228 17.5523 6 17 6H11C10.4477 6 10 5.55228 10 5V1ZM12 2V4H16V2H12Z" fill="#CCCCCC"/>
</svg>
