<svg width="48" height="48" viewBox="0 0 48 48" fill="none" xmlns="http://www.w3.org/2000/svg">
<g id="Group 3">
<rect id="Rectangle 1" width="48" height="48" rx="8" fill="#F5F5DC"/>
<path id="Vector 1" d="M11.0769 36.8381V17.3906L24 21.4036L36.9231 17.3617V36.8381L24 40.8511L11.0769 36.8381Z" fill="#192841"/>
<ellipse id="Ellipse 1" cx="24" cy="11.7447" rx="7.38462" ry="7.65957" fill="#12593F"/>
<path id="Vector 3" d="M40.141 26.1349C39.7845 24.454 38.0278 21.6752 36.8275 23.0054C36.2541 23.6408 36.8719 24.6155 36.2512 25.1961C35.7651 25.6507 35.2133 25.3013 34.6665 25.6655C33.947 26.1446 33.6912 26.6956 33.3699 27.5432C32.941 28.6748 32.9326 29.4913 33.2258 30.6728C33.5714 32.0653 34.0054 33.1227 35.2427 33.6459C36.0816 34.0005 36.6911 33.946 37.5478 33.6459C39.1117 33.098 39.7845 31.652 40.141 30.0469C40.4974 28.4418 40.4974 27.8159 40.141 26.1349Z" fill="#12593F" stroke="#F5F5DC" stroke-width="0.5"/>
<path id="Vector 3_2" d="M7.56336 26.1349C7.91981 24.454 9.67653 21.6752 10.8769 23.0054C11.4503 23.6408 10.8324 24.6155 11.4531 25.1961C11.9392 25.6507 12.491 25.3013 13.0379 25.6655C13.7573 26.1446 14.0132 26.6956 14.3345 27.5432C14.7634 28.6748 14.7718 29.4913 14.4785 30.6728C14.1329 32.0653 13.699 33.1227 12.4616 33.6459C11.6227 34.0005 11.0133 33.946 10.1565 33.6459C8.59269 33.098 7.91981 31.652 7.56336 30.0469C7.20691 28.4418 7.20691 27.8159 7.56336 26.1349Z" fill="#12593F" stroke="#F5F5DC" stroke-width="0.5"/>
</g>
</svg>
