<svg width="1364" height="1080" viewBox="0 0 1364 1080" fill="none" xmlns="http://www.w3.org/2000/svg">
<g clip-path="url(#clip0_148_25)">
<rect width="1364" height="1080" fill="white"/>
<rect width="1364" height="1080" fill="#12593F"/>
<path d="M692.592 255V228.18H702.6C704.424 228.18 706.032 228.516 707.424 229.188C708.84 229.836 709.944 230.796 710.736 232.068C711.528 233.316 711.924 234.84 711.924 236.64C711.924 238.416 711.516 239.94 710.7 241.212C709.908 242.46 708.816 243.42 707.424 244.092C706.032 244.764 704.424 245.1 702.6 245.1H697.488V255H692.592ZM697.488 240.78H702.672C703.56 240.78 704.328 240.612 704.976 240.276C705.624 239.916 706.128 239.424 706.488 238.8C706.848 238.176 707.028 237.456 707.028 236.64C707.028 235.8 706.848 235.08 706.488 234.48C706.128 233.856 705.624 233.376 704.976 233.04C704.328 232.68 703.56 232.5 702.672 232.5H697.488V240.78ZM716.98 255V235.416H721.408V239.772L721.048 239.124C721.504 237.66 722.212 236.64 723.172 236.064C724.156 235.488 725.332 235.2 726.7 235.2H727.852V239.376H726.16C724.816 239.376 723.736 239.796 722.92 240.636C722.104 241.452 721.696 242.604 721.696 244.092V255H716.98ZM741.461 255.432C739.541 255.432 737.789 254.988 736.205 254.1C734.645 253.212 733.397 252 732.461 250.464C731.549 248.928 731.093 247.176 731.093 245.208C731.093 243.24 731.549 241.488 732.461 239.952C733.397 238.416 734.645 237.204 736.205 236.316C737.765 235.428 739.517 234.984 741.461 234.984C743.381 234.984 745.121 235.428 746.681 236.316C748.241 237.204 749.477 238.416 750.389 239.952C751.325 241.464 751.793 243.216 751.793 245.208C751.793 247.176 751.325 248.928 750.389 250.464C749.453 252 748.205 253.212 746.645 254.1C745.085 254.988 743.357 255.432 741.461 255.432ZM741.461 251.112C742.517 251.112 743.441 250.86 744.233 250.356C745.049 249.852 745.685 249.156 746.141 248.268C746.621 247.356 746.861 246.336 746.861 245.208C746.861 244.056 746.621 243.048 746.141 242.184C745.685 241.296 745.049 240.6 744.233 240.096C743.441 239.568 742.517 239.304 741.461 239.304C740.381 239.304 739.433 239.568 738.617 240.096C737.801 240.6 737.153 241.296 736.673 242.184C736.217 243.048 735.989 244.056 735.989 245.208C735.989 246.336 736.217 247.356 736.673 248.268C737.153 249.156 737.801 249.852 738.617 250.356C739.433 250.86 740.381 251.112 741.461 251.112ZM766.241 255.432C764.297 255.432 762.545 254.988 760.985 254.1C759.449 253.188 758.237 251.964 757.349 250.428C756.461 248.868 756.017 247.116 756.017 245.172C756.017 243.228 756.461 241.488 757.349 239.952C758.237 238.416 759.449 237.204 760.985 236.316C762.545 235.428 764.297 234.984 766.241 234.984C767.633 234.984 768.929 235.236 770.129 235.74C771.329 236.22 772.361 236.892 773.225 237.756C774.113 238.596 774.749 239.604 775.133 240.78L770.993 242.58C770.633 241.596 770.021 240.804 769.157 240.204C768.317 239.604 767.345 239.304 766.241 239.304C765.209 239.304 764.285 239.556 763.469 240.06C762.677 240.564 762.053 241.26 761.597 242.148C761.141 243.036 760.913 244.056 760.913 245.208C760.913 246.36 761.141 247.38 761.597 248.268C762.053 249.156 762.677 249.852 763.469 250.356C764.285 250.86 765.209 251.112 766.241 251.112C767.369 251.112 768.353 250.812 769.193 250.212C770.033 249.612 770.633 248.808 770.993 247.8L775.133 249.672C774.749 250.776 774.125 251.772 773.261 252.66C772.397 253.524 771.365 254.208 770.165 254.712C768.965 255.192 767.657 255.432 766.241 255.432ZM789.439 255.432C787.423 255.432 785.659 254.976 784.147 254.064C782.635 253.152 781.459 251.916 780.619 250.356C779.779 248.796 779.359 247.068 779.359 245.172C779.359 243.204 779.779 241.464 780.619 239.952C781.483 238.416 782.647 237.204 784.111 236.316C785.599 235.428 787.255 234.984 789.079 234.984C790.615 234.984 791.959 235.236 793.111 235.74C794.287 236.244 795.283 236.94 796.099 237.828C796.915 238.716 797.539 239.736 797.971 240.888C798.403 242.016 798.619 243.24 798.619 244.56C798.619 244.896 798.595 245.244 798.547 245.604C798.523 245.964 798.463 246.276 798.367 246.54H783.247V242.94H795.703L793.471 244.632C793.687 243.528 793.627 242.544 793.291 241.68C792.979 240.816 792.451 240.132 791.707 239.628C790.987 239.124 790.111 238.872 789.079 238.872C788.095 238.872 787.219 239.124 786.451 239.628C785.683 240.108 785.095 240.828 784.687 241.788C784.303 242.724 784.159 243.864 784.255 245.208C784.159 246.408 784.315 247.476 784.723 248.412C785.155 249.324 785.779 250.032 786.595 250.536C787.435 251.04 788.395 251.292 789.475 251.292C790.555 251.292 791.467 251.064 792.211 250.608C792.979 250.152 793.579 249.54 794.011 248.772L797.827 250.644C797.443 251.58 796.843 252.408 796.027 253.128C795.211 253.848 794.239 254.412 793.111 254.82C792.007 255.228 790.783 255.432 789.439 255.432ZM811.086 255.432C808.998 255.432 807.174 254.94 805.614 253.956C804.078 252.948 803.022 251.592 802.446 249.888L805.974 248.196C806.478 249.3 807.174 250.164 808.062 250.788C808.974 251.412 809.982 251.724 811.086 251.724C811.95 251.724 812.634 251.532 813.138 251.148C813.642 250.764 813.894 250.26 813.894 249.636C813.894 249.252 813.786 248.94 813.57 248.7C813.378 248.436 813.102 248.22 812.742 248.052C812.406 247.86 812.034 247.704 811.626 247.584L808.422 246.684C806.766 246.204 805.506 245.472 804.642 244.488C803.802 243.504 803.382 242.34 803.382 240.996C803.382 239.796 803.682 238.752 804.282 237.864C804.906 236.952 805.758 236.244 806.838 235.74C807.942 235.236 809.202 234.984 810.618 234.984C812.466 234.984 814.098 235.428 815.514 236.316C816.93 237.204 817.938 238.452 818.538 240.06L814.938 241.752C814.602 240.864 814.038 240.156 813.246 239.628C812.454 239.1 811.566 238.836 810.582 238.836C809.79 238.836 809.166 239.016 808.71 239.376C808.254 239.736 808.026 240.204 808.026 240.78C808.026 241.14 808.122 241.452 808.314 241.716C808.506 241.98 808.77 242.196 809.106 242.364C809.466 242.532 809.874 242.688 810.33 242.832L813.462 243.768C815.07 244.248 816.306 244.968 817.17 245.928C818.058 246.888 818.502 248.064 818.502 249.456C818.502 250.632 818.19 251.676 817.566 252.588C816.942 253.476 816.078 254.172 814.974 254.676C813.87 255.18 812.574 255.432 811.086 255.432ZM831.018 255.432C828.93 255.432 827.106 254.94 825.546 253.956C824.01 252.948 822.954 251.592 822.378 249.888L825.906 248.196C826.41 249.3 827.106 250.164 827.994 250.788C828.906 251.412 829.914 251.724 831.018 251.724C831.882 251.724 832.566 251.532 833.07 251.148C833.574 250.764 833.826 250.26 833.826 249.636C833.826 249.252 833.718 248.94 833.502 248.7C833.31 248.436 833.034 248.22 832.674 248.052C832.338 247.86 831.966 247.704 831.558 247.584L828.354 246.684C826.698 246.204 825.438 245.472 824.574 244.488C823.734 243.504 823.314 242.34 823.314 240.996C823.314 239.796 823.614 238.752 824.214 237.864C824.838 236.952 825.69 236.244 826.77 235.74C827.874 235.236 829.134 234.984 830.55 234.984C832.398 234.984 834.03 235.428 835.446 236.316C836.862 237.204 837.87 238.452 838.47 240.06L834.87 241.752C834.534 240.864 833.97 240.156 833.178 239.628C832.386 239.1 831.498 238.836 830.514 238.836C829.722 238.836 829.098 239.016 828.642 239.376C828.186 239.736 827.958 240.204 827.958 240.78C827.958 241.14 828.054 241.452 828.246 241.716C828.438 241.98 828.702 242.196 829.038 242.364C829.398 242.532 829.806 242.688 830.262 242.832L833.394 243.768C835.002 244.248 836.238 244.968 837.102 245.928C837.99 246.888 838.434 248.064 838.434 249.456C838.434 250.632 838.122 251.676 837.498 252.588C836.874 253.476 836.01 254.172 834.906 254.676C833.802 255.18 832.506 255.432 831.018 255.432ZM853.075 255.432C851.155 255.432 849.403 254.988 847.819 254.1C846.259 253.212 845.011 252 844.075 250.464C843.163 248.928 842.707 247.176 842.707 245.208C842.707 243.24 843.163 241.488 844.075 239.952C845.011 238.416 846.259 237.204 847.819 236.316C849.379 235.428 851.131 234.984 853.075 234.984C854.995 234.984 856.735 235.428 858.295 236.316C859.855 237.204 861.091 238.416 862.003 239.952C862.939 241.464 863.407 243.216 863.407 245.208C863.407 247.176 862.939 248.928 862.003 250.464C861.067 252 859.819 253.212 858.259 254.1C856.699 254.988 854.971 255.432 853.075 255.432ZM853.075 251.112C854.131 251.112 855.055 250.86 855.847 250.356C856.663 249.852 857.299 249.156 857.755 248.268C858.235 247.356 858.475 246.336 858.475 245.208C858.475 244.056 858.235 243.048 857.755 242.184C857.299 241.296 856.663 240.6 855.847 240.096C855.055 239.568 854.131 239.304 853.075 239.304C851.995 239.304 851.047 239.568 850.231 240.096C849.415 240.6 848.767 241.296 848.287 242.184C847.831 243.048 847.603 244.056 847.603 245.208C847.603 246.336 847.831 247.356 848.287 248.268C848.767 249.156 849.415 249.852 850.231 250.356C851.047 250.86 851.995 251.112 853.075 251.112ZM702.168 300.432C700.464 300.432 698.88 300.12 697.416 299.496C695.976 298.872 694.728 298.008 693.672 296.904C692.64 295.776 691.884 294.468 691.404 292.98L695.472 291.216C696.12 292.752 697.056 293.964 698.28 294.852C699.504 295.716 700.884 296.148 702.42 296.148C703.284 296.148 704.028 296.016 704.652 295.752C705.3 295.464 705.792 295.08 706.128 294.6C706.488 294.12 706.668 293.544 706.668 292.872C706.668 292.08 706.428 291.432 705.948 290.928C705.492 290.4 704.796 289.992 703.86 289.704L698.712 288.048C696.624 287.4 695.052 286.428 693.996 285.132C692.94 283.836 692.412 282.312 692.412 280.56C692.412 279.024 692.784 277.668 693.528 276.492C694.296 275.316 695.352 274.404 696.696 273.756C698.064 273.084 699.624 272.748 701.376 272.748C702.984 272.748 704.46 273.036 705.804 273.612C707.148 274.164 708.3 274.944 709.26 275.952C710.244 276.936 710.976 278.1 711.456 279.444L707.424 281.244C706.896 279.9 706.104 278.868 705.048 278.148C703.992 277.404 702.768 277.032 701.376 277.032C700.56 277.032 699.84 277.176 699.216 277.464C698.592 277.728 698.1 278.112 697.74 278.616C697.404 279.096 697.236 279.672 697.236 280.344C697.236 281.088 697.476 281.748 697.956 282.324C698.436 282.876 699.168 283.308 700.152 283.62L705.084 285.168C707.22 285.864 708.816 286.824 709.872 288.048C710.952 289.272 711.492 290.784 711.492 292.584C711.492 294.12 711.096 295.476 710.304 296.652C709.512 297.828 708.42 298.752 707.028 299.424C705.636 300.096 704.016 300.432 702.168 300.432ZM726.233 300.432C724.217 300.432 722.453 299.976 720.941 299.064C719.429 298.152 718.253 296.916 717.413 295.356C716.573 293.796 716.153 292.068 716.153 290.172C716.153 288.204 716.573 286.464 717.413 284.952C718.277 283.416 719.441 282.204 720.905 281.316C722.393 280.428 724.049 279.984 725.873 279.984C727.409 279.984 728.753 280.236 729.905 280.74C731.081 281.244 732.077 281.94 732.893 282.828C733.709 283.716 734.333 284.736 734.765 285.888C735.197 287.016 735.413 288.24 735.413 289.56C735.413 289.896 735.389 290.244 735.341 290.604C735.317 290.964 735.257 291.276 735.161 291.54H720.041V287.94H732.497L730.265 289.632C730.481 288.528 730.421 287.544 730.085 286.68C729.773 285.816 729.245 285.132 728.501 284.628C727.781 284.124 726.905 283.872 725.873 283.872C724.889 283.872 724.013 284.124 723.245 284.628C722.477 285.108 721.889 285.828 721.481 286.788C721.097 287.724 720.953 288.864 721.049 290.208C720.953 291.408 721.109 292.476 721.517 293.412C721.949 294.324 722.573 295.032 723.389 295.536C724.229 296.04 725.189 296.292 726.269 296.292C727.349 296.292 728.261 296.064 729.005 295.608C729.773 295.152 730.373 294.54 730.805 293.772L734.621 295.644C734.237 296.58 733.637 297.408 732.821 298.128C732.005 298.848 731.033 299.412 729.905 299.82C728.801 300.228 727.577 300.432 726.233 300.432ZM740.428 300V272.748H745.144V300H740.428ZM760.226 300.432C758.21 300.432 756.446 299.976 754.934 299.064C753.422 298.152 752.246 296.916 751.406 295.356C750.566 293.796 750.146 292.068 750.146 290.172C750.146 288.204 750.566 286.464 751.406 284.952C752.27 283.416 753.434 282.204 754.898 281.316C756.386 280.428 758.042 279.984 759.866 279.984C761.402 279.984 762.746 280.236 763.898 280.74C765.074 281.244 766.07 281.94 766.886 282.828C767.702 283.716 768.326 284.736 768.758 285.888C769.19 287.016 769.406 288.24 769.406 289.56C769.406 289.896 769.382 290.244 769.334 290.604C769.31 290.964 769.25 291.276 769.154 291.54H754.034V287.94H766.49L764.258 289.632C764.474 288.528 764.414 287.544 764.078 286.68C763.766 285.816 763.238 285.132 762.494 284.628C761.774 284.124 760.898 283.872 759.866 283.872C758.882 283.872 758.006 284.124 757.238 284.628C756.47 285.108 755.882 285.828 755.474 286.788C755.09 287.724 754.946 288.864 755.042 290.208C754.946 291.408 755.102 292.476 755.51 293.412C755.942 294.324 756.566 295.032 757.382 295.536C758.222 296.04 759.182 296.292 760.262 296.292C761.342 296.292 762.254 296.064 762.998 295.608C763.766 295.152 764.366 294.54 764.798 293.772L768.614 295.644C768.23 296.58 767.63 297.408 766.814 298.128C765.998 298.848 765.026 299.412 763.898 299.82C762.794 300.228 761.57 300.432 760.226 300.432ZM783.349 300.216C781.141 300.216 779.425 299.616 778.201 298.416C777.001 297.192 776.401 295.476 776.401 293.268V284.628H773.017V280.416H773.377C774.337 280.416 775.081 280.164 775.609 279.66C776.137 279.156 776.401 278.424 776.401 277.464V275.952H781.117V280.416H785.617V284.628H781.117V293.016C781.117 293.664 781.225 294.216 781.441 294.672C781.681 295.128 782.041 295.476 782.521 295.716C783.025 295.956 783.661 296.076 784.429 296.076C784.597 296.076 784.789 296.064 785.005 296.04C785.245 296.016 785.473 295.992 785.689 295.968V300C785.353 300.048 784.969 300.096 784.537 300.144C784.105 300.192 783.709 300.216 783.349 300.216ZM790.732 300V280.416H795.448V300H790.732ZM790.732 278.22V273.18H795.448V278.22H790.732ZM807.146 300L799.442 280.416H804.59L810.17 295.824H808.262L813.878 280.416H819.026L811.322 300H807.146ZM832.297 300.432C830.377 300.432 828.625 299.988 827.041 299.1C825.481 298.212 824.233 297 823.297 295.464C822.385 293.928 821.929 292.176 821.929 290.208C821.929 288.24 822.385 286.488 823.297 284.952C824.233 283.416 825.481 282.204 827.041 281.316C828.601 280.428 830.353 279.984 832.297 279.984C834.217 279.984 835.957 280.428 837.517 281.316C839.077 282.204 840.313 283.416 841.225 284.952C842.161 286.464 842.629 288.216 842.629 290.208C842.629 292.176 842.161 293.928 841.225 295.464C840.289 297 839.041 298.212 837.481 299.1C835.921 299.988 834.193 300.432 832.297 300.432ZM832.297 296.112C833.353 296.112 834.277 295.86 835.069 295.356C835.885 294.852 836.521 294.156 836.977 293.268C837.457 292.356 837.697 291.336 837.697 290.208C837.697 289.056 837.457 288.048 836.977 287.184C836.521 286.296 835.885 285.6 835.069 285.096C834.277 284.568 833.353 284.304 832.297 284.304C831.217 284.304 830.269 284.568 829.453 285.096C828.637 285.6 827.989 286.296 827.509 287.184C827.053 288.048 826.825 289.056 826.825 290.208C826.825 291.336 827.053 292.356 827.509 293.268C827.989 294.156 828.637 294.852 829.453 295.356C830.269 295.86 831.217 296.112 832.297 296.112Z" fill="#CCCCCC"/>
<g opacity="0.9">
<path d="M589.25 363.6C603.938 363.6 616.631 365.957 627.33 370.672C638.21 375.205 646.551 381.733 652.354 390.256C658.338 398.779 661.33 408.661 661.33 419.904C661.33 430.421 658.701 439.941 653.442 448.464C648.183 456.987 641.565 464.512 633.586 471.04C625.607 477.568 614.637 485.547 600.674 494.976C592.877 500.053 586.53 504.405 581.634 508.032H663.506V554H508.466V540.944C508.466 531.333 510.642 522.811 514.994 515.376C519.527 507.76 526.055 500.144 534.578 492.528C543.282 484.912 555.794 474.576 572.114 461.52C585.17 451.184 594.327 443.296 599.586 437.856C604.845 432.416 607.474 427.067 607.474 421.808C607.474 416.187 605.479 411.472 601.49 407.664C597.682 403.856 591.879 401.952 584.082 401.952C575.922 401.952 569.485 404.309 564.77 409.024C560.055 413.739 557.698 419.904 557.698 427.52V432.96H509.282C509.101 431.509 509.01 429.515 509.01 426.976C509.01 407.392 515.81 391.979 529.41 380.736C543.191 369.312 563.138 363.6 589.25 363.6ZM778.288 363.6C807.483 363.6 827.973 371.941 839.76 388.624C851.728 405.125 857.712 429.061 857.712 460.432C857.712 491.803 851.728 515.829 839.76 532.512C827.973 549.013 807.483 557.264 778.288 557.264C748.912 557.264 728.24 549.013 716.272 532.512C704.485 515.829 698.592 491.803 698.592 460.432C698.592 429.061 704.485 405.125 716.272 388.624C728.24 371.941 748.912 363.6 778.288 363.6ZM778.288 400.32C768.859 400.32 762.149 403.947 758.16 411.2C754.171 418.453 752.176 430.331 752.176 446.832V473.76C752.176 490.443 754.171 502.411 758.16 509.664C762.149 516.917 768.859 520.544 778.288 520.544C787.717 520.544 794.336 516.917 798.144 509.664C801.952 502.411 803.856 490.443 803.856 473.76V446.832C803.856 430.149 801.952 418.272 798.144 411.2C794.336 403.947 787.717 400.32 778.288 400.32Z" fill="white"/>
<path d="M589.25 571.6C603.938 571.6 616.631 573.957 627.33 578.672C638.21 583.205 646.551 589.733 652.354 598.256C658.338 606.779 661.33 616.661 661.33 627.904C661.33 638.421 658.701 647.941 653.442 656.464C648.183 664.987 641.565 672.512 633.586 679.04C625.607 685.568 614.637 693.547 600.674 702.976C592.877 708.053 586.53 712.405 581.634 716.032H663.506V762H508.466V748.944C508.466 739.333 510.642 730.811 514.994 723.376C519.527 715.76 526.055 708.144 534.578 700.528C543.282 692.912 555.794 682.576 572.114 669.52C585.17 659.184 594.327 651.296 599.586 645.856C604.845 640.416 607.474 635.067 607.474 629.808C607.474 624.187 605.479 619.472 601.49 615.664C597.682 611.856 591.879 609.952 584.082 609.952C575.922 609.952 569.485 612.309 564.77 617.024C560.055 621.739 557.698 627.904 557.698 635.52V640.96H509.282C509.101 639.509 509.01 637.515 509.01 634.976C509.01 615.392 515.81 599.979 529.41 588.736C543.191 577.312 563.138 571.6 589.25 571.6ZM754.624 621.104L752.448 649.392C752.448 649.029 754.261 647.851 757.888 645.856C761.515 643.68 766.32 641.685 772.304 639.872C778.288 638.059 784.997 637.152 792.432 637.152C812.379 637.152 828.155 642.864 839.76 654.288C851.547 665.531 857.44 681.035 857.44 700.8C857.44 712.768 854.267 723.648 847.92 733.44C841.573 743.232 832.597 751.029 820.992 756.832C809.387 762.453 795.968 765.264 780.736 765.264C754.08 765.264 733.589 759.552 719.264 748.128C705.12 736.704 698.048 721.2 698.048 701.616H745.92C745.92 709.051 748.459 715.307 753.536 720.384C758.613 725.28 765.776 727.728 775.024 727.728C784.272 727.728 791.344 725.189 796.24 720.112C801.317 714.853 803.856 708.144 803.856 699.984C803.856 691.643 801.317 684.933 796.24 679.856C791.344 674.597 784.363 671.968 775.296 671.968C768.405 671.968 763.147 673.147 759.52 675.504C756.075 677.68 753.536 679.765 751.904 681.76C750.453 683.755 749.547 685.024 749.184 685.568L706.208 679.584L714.096 574.864H843.568V621.104H754.624Z" fill="white"/>
</g>
<rect x="510" y="223" width="172" height="82" rx="8" fill="#192841"/>
<path d="M541.179 279L530.779 249.2H536.699L544.859 273.88H543.699L551.859 249.2H557.779L547.419 279H541.179ZM570.598 279.48C568.358 279.48 566.398 278.973 564.718 277.96C563.038 276.947 561.731 275.573 560.798 273.84C559.864 272.107 559.398 270.187 559.398 268.08C559.398 265.893 559.864 263.96 560.798 262.28C561.758 260.573 563.051 259.227 564.678 258.24C566.331 257.253 568.171 256.76 570.198 256.76C571.904 256.76 573.398 257.04 574.678 257.6C575.984 258.16 577.091 258.933 577.998 259.92C578.904 260.907 579.598 262.04 580.078 263.32C580.558 264.573 580.798 265.933 580.798 267.4C580.798 267.773 580.771 268.16 580.718 268.56C580.691 268.96 580.624 269.307 580.518 269.6H563.718V265.6H577.558L575.078 267.48C575.318 266.253 575.251 265.16 574.878 264.2C574.531 263.24 573.944 262.48 573.118 261.92C572.318 261.36 571.344 261.08 570.198 261.08C569.104 261.08 568.131 261.36 567.278 261.92C566.424 262.453 565.771 263.253 565.318 264.32C564.891 265.36 564.731 266.627 564.838 268.12C564.731 269.453 564.904 270.64 565.358 271.68C565.838 272.693 566.531 273.48 567.438 274.04C568.371 274.6 569.438 274.88 570.638 274.88C571.838 274.88 572.851 274.627 573.678 274.12C574.531 273.613 575.198 272.933 575.678 272.08L579.918 274.16C579.491 275.2 578.824 276.12 577.918 276.92C577.011 277.72 575.931 278.347 574.678 278.8C573.451 279.253 572.091 279.48 570.598 279.48ZM586.37 279V257.24H591.29V262.28L590.73 261.44C591.13 259.867 591.93 258.693 593.13 257.92C594.33 257.147 595.743 256.76 597.37 256.76C599.156 256.76 600.73 257.227 602.09 258.16C603.45 259.093 604.33 260.32 604.73 261.84L603.25 261.96C603.916 260.227 604.916 258.933 606.25 258.08C607.583 257.2 609.116 256.76 610.85 256.76C612.396 256.76 613.77 257.107 614.97 257.8C616.196 258.493 617.156 259.467 617.85 260.72C618.543 261.947 618.89 263.373 618.89 265V279H613.65V266.24C613.65 265.28 613.476 264.453 613.13 263.76C612.783 263.067 612.303 262.533 611.69 262.16C611.076 261.76 610.33 261.56 609.45 261.56C608.623 261.56 607.89 261.76 607.25 262.16C606.61 262.533 606.116 263.067 605.77 263.76C605.423 264.453 605.25 265.28 605.25 266.24V279H600.01V266.24C600.01 265.28 599.836 264.453 599.49 263.76C599.143 263.067 598.65 262.533 598.01 262.16C597.396 261.76 596.663 261.56 595.81 261.56C594.983 261.56 594.25 261.76 593.61 262.16C592.97 262.533 592.476 263.067 592.13 263.76C591.783 264.453 591.61 265.28 591.61 266.24V279H586.37ZM622.923 279L633.203 249.2H640.243L650.523 279H644.603L642.483 272.6H630.963L628.803 279H622.923ZM632.523 267.8H640.923L635.963 252.96H637.483L632.523 267.8ZM654.519 279V257.24H659.759V279H654.519ZM654.559 253.4L657.159 246.48H663.959L659.719 253.4H654.559Z" fill="#F5F5DC"/>
<path d="M665.72 848.48C663.4 848.48 661.373 847.933 659.64 846.84C657.933 845.72 656.76 844.213 656.12 842.32L660.04 840.44C660.6 841.667 661.373 842.627 662.36 843.32C663.373 844.013 664.493 844.36 665.72 844.36C666.68 844.36 667.44 844.147 668 843.72C668.56 843.293 668.84 842.733 668.84 842.04C668.84 841.613 668.72 841.267 668.48 841C668.267 840.707 667.96 840.467 667.56 840.28C667.187 840.067 666.773 839.893 666.32 839.76L662.76 838.76C660.92 838.227 659.52 837.413 658.56 836.32C657.627 835.227 657.16 833.933 657.16 832.44C657.16 831.107 657.493 829.947 658.16 828.96C658.853 827.947 659.8 827.16 661 826.6C662.227 826.04 663.627 825.76 665.2 825.76C667.253 825.76 669.067 826.253 670.64 827.24C672.213 828.227 673.333 829.613 674 831.4L670 833.28C669.627 832.293 669 831.507 668.12 830.92C667.24 830.333 666.253 830.04 665.16 830.04C664.28 830.04 663.587 830.24 663.08 830.64C662.573 831.04 662.32 831.56 662.32 832.2C662.32 832.6 662.427 832.947 662.64 833.24C662.853 833.533 663.147 833.773 663.52 833.96C663.92 834.147 664.373 834.32 664.88 834.48L668.36 835.52C670.147 836.053 671.52 836.853 672.48 837.92C673.467 838.987 673.96 840.293 673.96 841.84C673.96 843.147 673.613 844.307 672.92 845.32C672.227 846.307 671.267 847.08 670.04 847.64C668.813 848.2 667.373 848.48 665.72 848.48ZM679.587 848V826.24H684.827V848H679.587ZM679.587 823.8V818.2H684.827V823.8H679.587ZM699.545 848.48C697.225 848.48 695.198 847.933 693.465 846.84C691.758 845.72 690.585 844.213 689.945 842.32L693.865 840.44C694.425 841.667 695.198 842.627 696.185 843.32C697.198 844.013 698.318 844.36 699.545 844.36C700.505 844.36 701.265 844.147 701.825 843.72C702.385 843.293 702.665 842.733 702.665 842.04C702.665 841.613 702.545 841.267 702.305 841C702.092 840.707 701.785 840.467 701.385 840.28C701.012 840.067 700.598 839.893 700.145 839.76L696.585 838.76C694.745 838.227 693.345 837.413 692.385 836.32C691.452 835.227 690.985 833.933 690.985 832.44C690.985 831.107 691.318 829.947 691.985 828.96C692.678 827.947 693.625 827.16 694.825 826.6C696.052 826.04 697.452 825.76 699.025 825.76C701.078 825.76 702.892 826.253 704.465 827.24C706.038 828.227 707.158 829.613 707.825 831.4L703.825 833.28C703.452 832.293 702.825 831.507 701.945 830.92C701.065 830.333 700.078 830.04 698.985 830.04C698.105 830.04 697.412 830.24 696.905 830.64C696.398 831.04 696.145 831.56 696.145 832.2C696.145 832.6 696.252 832.947 696.465 833.24C696.678 833.533 696.972 833.773 697.345 833.96C697.745 834.147 698.198 834.32 698.705 834.48L702.185 835.52C703.972 836.053 705.345 836.853 706.305 837.92C707.292 838.987 707.785 840.293 707.785 841.84C707.785 843.147 707.438 844.307 706.745 845.32C706.052 846.307 705.092 847.08 703.865 847.64C702.638 848.2 701.198 848.48 699.545 848.48ZM723.732 848.48C721.492 848.48 719.532 847.973 717.852 846.96C716.172 845.947 714.865 844.573 713.932 842.84C712.999 841.107 712.532 839.187 712.532 837.08C712.532 834.893 712.999 832.96 713.932 831.28C714.892 829.573 716.185 828.227 717.812 827.24C719.465 826.253 721.305 825.76 723.332 825.76C725.039 825.76 726.532 826.04 727.812 826.6C729.119 827.16 730.225 827.933 731.132 828.92C732.039 829.907 732.732 831.04 733.212 832.32C733.692 833.573 733.932 834.933 733.932 836.4C733.932 836.773 733.905 837.16 733.852 837.56C733.825 837.96 733.759 838.307 733.652 838.6H716.852V834.6H730.692L728.212 836.48C728.452 835.253 728.385 834.16 728.012 833.2C727.665 832.24 727.079 831.48 726.252 830.92C725.452 830.36 724.479 830.08 723.332 830.08C722.239 830.08 721.265 830.36 720.412 830.92C719.559 831.453 718.905 832.253 718.452 833.32C718.025 834.36 717.865 835.627 717.972 837.12C717.865 838.453 718.039 839.64 718.492 840.68C718.972 841.693 719.665 842.48 720.572 843.04C721.505 843.6 722.572 843.88 723.772 843.88C724.972 843.88 725.985 843.627 726.812 843.12C727.665 842.613 728.332 841.933 728.812 841.08L733.052 843.16C732.625 844.2 731.959 845.12 731.052 845.92C730.145 846.72 729.065 847.347 727.812 847.8C726.585 848.253 725.225 848.48 723.732 848.48ZM739.504 856V826.24H744.424V830.56L743.944 829.48C744.691 828.307 745.704 827.4 746.984 826.76C748.264 826.093 749.744 825.76 751.424 825.76C753.477 825.76 755.331 826.267 756.984 827.28C758.637 828.293 759.944 829.653 760.904 831.36C761.891 833.067 762.384 834.987 762.384 837.12C762.384 839.227 761.904 841.147 760.944 842.88C759.984 844.613 758.677 845.987 757.024 847C755.371 847.987 753.491 848.48 751.384 848.48C749.811 848.48 748.357 848.173 747.024 847.56C745.717 846.92 744.677 846.013 743.904 844.84L744.744 843.8V856H739.504ZM750.784 843.68C751.984 843.68 753.051 843.4 753.984 842.84C754.917 842.28 755.637 841.507 756.144 840.52C756.677 839.533 756.944 838.4 756.944 837.12C756.944 835.84 756.677 834.72 756.144 833.76C755.637 832.773 754.917 832 753.984 831.44C753.051 830.853 751.984 830.56 750.784 830.56C749.637 830.56 748.597 830.84 747.664 831.4C746.757 831.96 746.037 832.747 745.504 833.76C744.997 834.747 744.744 835.867 744.744 837.12C744.744 838.4 744.997 839.533 745.504 840.52C746.037 841.507 746.757 842.28 747.664 842.84C748.597 843.4 749.637 843.68 750.784 843.68Z" fill="#F5F5DC"/>
<rect x="599" y="810" width="48" height="48" rx="8" fill="#F5F5DC"/>
<path d="M610.077 846.838V827.391L623 831.404L635.923 827.362V846.838L623 850.851L610.077 846.838Z" fill="#192841"/>
<ellipse cx="623" cy="821.745" rx="7.38462" ry="7.65957" fill="#12593F"/>
<path d="M639.141 836.135C638.784 834.454 637.028 831.675 635.827 833.005C635.254 833.641 635.872 834.615 635.251 835.196C634.765 835.651 634.213 835.301 633.666 835.665C632.947 836.145 632.691 836.696 632.37 837.543C631.941 838.675 631.932 839.491 632.226 840.673C632.571 842.065 633.005 843.123 634.243 843.646C635.081 844.001 635.691 843.946 636.548 843.646C638.112 843.098 638.784 841.652 639.141 840.047C639.497 838.442 639.497 837.816 639.141 836.135Z" fill="#12593F" stroke="#F5F5DC" stroke-width="0.5"/>
<path d="M606.563 836.135C606.92 834.454 608.676 831.675 609.877 833.005C610.45 833.641 609.832 834.615 610.453 835.196C610.939 835.651 611.491 835.301 612.038 835.665C612.757 836.145 613.013 836.696 613.334 837.543C613.763 838.675 613.772 839.491 613.478 840.673C613.133 842.065 612.699 843.123 611.461 843.646C610.623 844.001 610.013 843.946 609.156 843.646C607.593 843.098 606.92 841.652 606.563 840.047C606.207 838.442 606.207 837.816 606.563 836.135Z" fill="#12593F" stroke="#F5F5DC" stroke-width="0.5"/>
</g>
<defs>
<clipPath id="clip0_148_25">
<rect width="1364" height="1080" fill="white"/>
</clipPath>
</defs>
</svg>
