<svg width="24" height="24" viewBox="0 0 24 24" fill="none" xmlns="http://www.w3.org/2000/svg">
<g id="Frame">
<path id="Vector" d="M11.6085 9.5L13.7245 14.5875L19.2169 15.0279L15.0323 18.6125L16.3107 23.9721L11.6085 21.1L6.90617 23.9721L8.18465 18.6125L4 15.0279L9.49243 14.5875L11.6085 9.5ZM11.6085 14.707L10.8699 16.4835L8.95345 16.637L10.4135 17.8883L9.9665 19.759L11.6085 18.7564L13.2495 19.759L12.8034 17.8883L14.2625 16.637L12.347 16.4835L11.6085 14.707ZM7.60845 3V12H5.60845V3H7.60845ZM17.6085 3V12H15.6085V3H17.6085ZM12.6085 3V8H10.6085V3H12.6085Z" fill="#CCCCCC"/>
</g>
</svg>
